<svg width="224" height="271" xmlns="http://www.w3.org/2000/svg" xmlns:xlink="http://www.w3.org/1999/xlink" xml:space="preserve" overflow="hidden"><defs><clipPath id="clip0"><rect x="2088" y="1102" width="224" height="271"/></clipPath></defs><g clip-path="url(#clip0)" transform="translate(-2088 -1102)"><path d="M2239 1200.94C2224.61 1200.94 2213.3 1189.26 2213.3 1175.17 2213.3 1161.09 2224.95 1149.41 2239 1149.41 2253.39 1149.41 2264.7 1161.09 2264.7 1175.17 2264.7 1189.26 2253.05 1200.94 2239 1200.94ZM2296.92 1159.03C2295.55 1154.22 2293.84 1149.75 2291.44 1145.63L2296.92 1129.48 2284.58 1117.12 2268.47 1122.61C2264.36 1120.21 2259.91 1118.49 2255.11 1117.12L2247.57 1102 2230.43 1102 2222.89 1117.12C2218.09 1118.49 2213.64 1120.21 2209.53 1122.61L2193.42 1117.12 2181.08 1129.48 2186.56 1145.63C2184.16 1149.75 2182.45 1154.22 2181.08 1159.03L2166 1166.58 2166 1183.76 2181.08 1191.32C2182.45 1196.13 2184.16 1200.59 2186.56 1204.72L2181.08 1220.86 2193.08 1232.89 2209.18 1227.39C2213.3 1229.79 2217.75 1231.51 2222.55 1232.89L2230.09 1248 2247.23 1248 2254.77 1232.89C2259.56 1231.51 2264.02 1229.79 2268.13 1227.39L2284.24 1232.89 2296.58 1220.86 2291.09 1204.72C2293.49 1200.59 2295.55 1195.78 2296.92 1191.32L2312 1183.76 2312 1166.58 2296.92 1159.03Z" fill="#FFFFFF" fill-rule="evenodd"/><path d="M2161 1325.94C2146.61 1325.94 2135.3 1314.26 2135.3 1300.17 2135.3 1285.74 2146.95 1274.41 2161 1274.41 2175.39 1274.41 2186.7 1286.09 2186.7 1300.17 2186.7 1314.26 2175.39 1325.94 2161 1325.94L2161 1325.94ZM2213.44 1270.63 2218.92 1254.48 2206.58 1242.12 2190.47 1247.61C2186.36 1245.21 2181.56 1243.49 2177.11 1242.12L2169.57 1227 2152.43 1227 2144.89 1242.12C2140.09 1243.49 2135.64 1245.21 2131.53 1247.61L2115.42 1242.12 2103.42 1254.14 2108.56 1270.28C2106.16 1274.41 2104.45 1279.22 2103.08 1283.68L2088 1291.24 2088 1308.42 2103.08 1315.97C2104.45 1320.78 2106.16 1325.25 2108.56 1329.37L2103.42 1345.52 2115.42 1357.54 2131.53 1352.39C2135.64 1354.79 2140.09 1356.51 2144.89 1357.89L2152.43 1373 2169.57 1373 2177.11 1357.89C2181.91 1356.51 2186.36 1354.79 2190.47 1352.39L2206.58 1357.89 2218.58 1345.52 2213.44 1329.72C2215.84 1325.59 2217.55 1321.13 2218.92 1316.32L2234 1308.76 2234 1291.58 2218.92 1284.03C2217.55 1279.22 2215.84 1274.75 2213.44 1270.63Z" fill="#FFFFFF" fill-rule="evenodd"/></g></svg>